<svg version="1.1" id="Layer_1" xmlns="http://www.w3.org/2000/svg" x="0" y="0" viewBox="0 0 1920 1092" xml:space="preserve"><style>.st27{opacity:.68}</style><linearGradient id="SVGID_1_" gradientUnits="userSpaceOnUse" x1="120.92" y1="-278.312" x2="1982.61" y2="1354.814"><stop offset="0" stop-color="#fafcff"/><stop offset=".404" stop-color="#ecf6ff"/><stop offset="1" stop-color="#cfeaff"/></linearGradient><path d="M0 80.1c260.7-132.5 488.4-2.6 710.6-10.5s367.7-97 692.8-61.2c309.1 34 516.6 94.9 516.6 94.9l-.9 710.5L0 812.2V80.1z" fill="url(#SVGID_1_)"/><linearGradient id="SVGID_2_" gradientUnits="userSpaceOnUse" x1="960" y1="31.021" x2="960" y2="641.46"><stop offset="0" stop-color="#fafcff"/><stop offset=".869" stop-color="#ecf5ff" stop-opacity=".131"/><stop offset="1" stop-color="#e9f4ff" stop-opacity="0"/></linearGradient><path d="M0 80.1c260.7-132.5 488.4-2.6 710.6-10.5s367.7-97 692.8-61.2c309.1 34 516.6 94.9 516.6 94.9v708.8H0v-732z" fill="url(#SVGID_2_)"/><linearGradient id="SVGID_3_" gradientUnits="userSpaceOnUse" x1="1422.159" y1="319.865" x2="2056.445" y2="1208.561"><stop offset="0" stop-color="#fafcff"/><stop offset="1" stop-color="#b8dafe"/></linearGradient><path d="M1579.7 296.6c-145.2 19.2-310.9 141-310.9 141l193.3 425.9 357.4-30.4 29.1-397.6-56.8-85.2-119.6-60.1-92.5 6.4z" fill="url(#SVGID_3_)"/><linearGradient id="SVGID_4_" gradientUnits="userSpaceOnUse" x1="261.194" y1="78.511" x2="640.279" y2="1083.444"><stop offset="0" stop-color="#fafcff"/><stop offset="1" stop-color="#bfe0fe"/></linearGradient><path d="M867.7 345.6c-280.5 344-616.2 391-616.2 391L0 726.8V274.6c51.1-32.1 97.2-49.7 140.9-57.5 172.9-30.9 460.9 138.3 726.8 128.5z" fill="url(#SVGID_4_)"/><linearGradient id="SVGID_5_" gradientUnits="userSpaceOnUse" x1="1740.777" y1="188.442" x2="1617.738" y2="1068.644"><stop offset="0" stop-color="#fafcff"/><stop offset="1" stop-color="#b8dafe"/></linearGradient><path d="M1920 287.7v625.5l-484.9-99.9-41.3-150c42.2-90.6 186.1-55.2 290.2-114.9s86.5-220.1-104.3-251.8c130.3-14.2 253.8-35.1 340.3-8.9z" fill="url(#SVGID_5_)"/><linearGradient id="SVGID_6_" gradientUnits="userSpaceOnUse" x1="810.636" y1="738.296" x2="3635.896" y2="1593.032"><stop offset="0" stop-color="#fafcff"/><stop offset="1" stop-color="#b8ddfe"/></linearGradient><path d="M1920 814.2v249.4H0V457.1c214.4 50.1 434.9 7.7 743.2-125.3 122.5-52.9 221.2-81.1 307-79.1 130.1 3 230.4 75.6 338.4 237.2 22.6 33.7 46 64 70 91.1 11 12.5 22.2 24.3 33.4 35.4 53.1 52.9 108 91.7 161.1 120.1 104.6 56.2 203.3 72.5 266.9 77.7z" fill="url(#SVGID_6_)"/><linearGradient id="SVGID_7_" gradientUnits="userSpaceOnUse" x1="1013.718" y1="716.345" x2="166.779" y2="1626.02"><stop offset="0" stop-color="#fafcff"/><stop offset=".361" stop-color="#e8f3ff"/><stop offset="1" stop-color="#bfe0fe"/></linearGradient><path d="M1919.1 1012.5v79.5H0V457.1c24.9 5.8 50 10.4 75.2 13.7 16.6 2.2 33.3 3.9 50.2 4.9 177.4 11.7 369-36.6 617.8-144 122.5-52.9 221.2-81.1 307-79.1v.1c116.5 9.6 206.8 92.5 131.6 215.9-11.9 19.5-24.3 40.1-36.6 61.6-3 5.2-5.9 10.5-8.9 15.7-8.4 15.1-16.6 30.6-24.5 46.3-50.2 100.8-84.3 213.5-39 314.1 33.1 73.5 112.8 78.3 212.9 65.2 97-12.6 213.1-42 324.7-42 169.5 0 258 46.3 291.9 69.7 10.8 7.5 16.1 12.6 16.8 13.3-.1 0-.1 0 0 0z" fill="url(#SVGID_7_)"/><linearGradient id="SVGID_8_" gradientUnits="userSpaceOnUse" x1="960" y1="749.676" x2="960" y2="1074.636"><stop offset="0" stop-color="#fff" stop-opacity="0"/><stop offset="1" stop-color="#fff"/></linearGradient><path d="M1920 1092H0V457.1c24.9 5.8 50 10.4 75.2 13.7 16.6 2.2 33.3 3.9 50.2 4.9 67 4.4 136.1.3 209.5-12.4 120.9-20.9 253.5-64.8 408.3-131.6 122.5-52.9 221.2-81.1 307-79.1v.1c116.5 9.6 206.8 92.5 131.6 215.9-11.9 19.5-24.3 40.1-36.6 61.6-3 5.2-5.9 10.5-8.9 15.7-8.4 15.1-16.6 30.5-24.5 46.3-50.2 100.8-84.3 213.5-39 314.1 33.1 73.5 112.8 78.3 212.9 65.2 97-12.6 213.1-42 324.7-42 169.5 0 258 46.3 291.9 69.7 10.8 7.5 17.6 13.3 17.6 13.4v79.4z" fill="url(#SVGID_8_)"/><linearGradient id="SVGID_9_" gradientUnits="userSpaceOnUse" x1="615.685" y1="840.264" x2="-90.516" y2="357.082"><stop offset="0" stop-color="#fafcff"/><stop offset="1" stop-color="#acd7fe"/></linearGradient><path d="M1041.7 535.1c-1.5 4.7-3.3 9.5-5.5 14.3-3.7 8.1-8.3 16.3-13.9 24.5-5.9 8.7-12.9 17.4-20.9 26.1h-.1c-12.8 13.8-28.2 27.5-46.3 40.6C806.6 748.5 601.9 899.8 474 1092H0V948c269.5-84.4 617.4-516.4 857.8-537.2 147.3-12.8 208.1 49.3 183.9 124.3z" fill="url(#SVGID_9_)"/><linearGradient id="SVGID_10_" gradientUnits="userSpaceOnUse" x1="779.379" y1="903.471" x2="779.379" y2="1062.248"><stop offset="0" stop-color="#fff" stop-opacity="0"/><stop offset="1" stop-color="#fff"/></linearGradient><path d="M0 948s370.4-52.6 662.3-52.6 896.5 196.6 896.5 196.6H0V948z" fill="url(#SVGID_10_)"/><linearGradient id="SVGID_11_" gradientUnits="userSpaceOnUse" x1="1543.755" y1="856.518" x2="1937.75" y2="1143.346"><stop offset="0" stop-color="#fff" stop-opacity="0"/><stop offset="1" stop-color="#fff"/></linearGradient><path d="M1920 814.2v249.4h-526.1l83.2-327.1h176c104.6 56.2 203.3 72.5 266.9 77.7z" fill="url(#SVGID_11_)"/><linearGradient id="SVGID_12_" gradientUnits="userSpaceOnUse" x1="280.31" y1="759.787" x2="-90.408" y2="824.382"><stop offset="0" stop-color="#fff" stop-opacity="0"/><stop offset="1" stop-color="#fff"/></linearGradient><path d="M391.1 1092H0V457.1c24.9 5.8 50 10.4 75.2 13.7 16.6 2.2 33.3 3.9 50.2 4.9 67 4.4 136.1.3 209.5-12.4l56.2 628.7z" fill="url(#SVGID_12_)"/><radialGradient id="SVGID_13_" cx="370.52" cy="850.586" r="152.494" gradientTransform="matrix(.816 .5788 -.4692 .6631 468.619 75.012)" gradientUnits="userSpaceOnUse"><stop offset="0" stop-color="#ceddf8"/><stop offset=".338" stop-color="#d3e0f9" stop-opacity=".662"/><stop offset=".725" stop-color="#e1eafb" stop-opacity=".275"/><stop offset="1" stop-color="#eff4fe" stop-opacity="0"/></radialGradient><path d="M195.9 899.1c54 64.8 189.2 57 258.8 41.4 57.2-12.8 63-52-8.7-80.4-190.6-34-250.1 39-250.1 39z" opacity=".63" fill="url(#SVGID_13_)"/><linearGradient id="SVGID_14_" gradientUnits="userSpaceOnUse" x1="248.677" y1="835.66" x2="445.208" y2="941.806" gradientTransform="matrix(.9999 -.01594 .01594 .9999 -12.197 8.528)"><stop offset=".001" stop-color="#deecfe"/><stop offset=".209" stop-color="#e6f1fe"/><stop offset=".746" stop-color="#d5e3f8"/><stop offset="1" stop-color="#e3effe"/></linearGradient><path d="M469.7 883.6c0 5.1-1.3 9.7-3.8 13.9-4.3 7.4-12.2 13.6-22.7 18.6-25.6 12.1-67.3 17.5-114.3 17.5-27.4 0-52.9-1.9-74.5-5.8-17-3.1-31.6-7.5-42.6-13.3-14.8-7.7-23.3-18-23.3-31 0-8.6 4.3-16.9 11.8-24.6.9-1 1.9-1.9 3-2.9.5-.5 1-.9 1.6-1.4.6-.5 1.1-.9 1.7-1.4.6-.5 1.2-.9 1.8-1.4.6-.5 1.2-.9 1.8-1.4.6-.5 1.2-.9 1.9-1.3 1.3-.9 2.6-1.8 3.9-2.6.7-.4 1.3-.9 2-1.3 4.9-3 10.3-5.8 16.1-8.4.7-.3 1.5-.7 2.2-1 .2-.1.3-.1.5-.2 1.6-.7 3.2-1.3 4.9-2 .2-.1.4-.2.6-.2 1.5-.6 3.1-1.2 4.7-1.8.9-.3 1.8-.6 2.7-1 .9-.3 1.7-.6 2.6-.9 1.4-.5 2.8-.9 4.3-1.4 2.1-.6 4.2-1.3 6.4-1.9.3-.1.5-.1.8-.2.6-.2 1.2-.3 1.8-.5.3-.1.7-.2 1.1-.3 5.9-1.5 11.9-2.9 18-4 1-.2 2-.4 3-.5 1.7-.3 3.4-.6 5.1-.8 1.7-.3 3.5-.5 5.2-.7.4-.1.9-.1 1.3-.2.3 0 .6-.1.9-.1l2.7-.3c2.8-.3 5.6-.6 8.3-.8.8-.1 1.6-.1 2.4-.2 2.4-.2 4.8-.3 7.2-.4.8 0 1.6-.1 2.4-.1 2.1 0 4.1-.1 6.2-.1h2.7c11.9.1 23.9 1.2 35.6 3 11.4 1.8 22.4 4.3 32.8 7.4 10.7 3.2 20.6 7.1 29.5 11.4 10 4.9 18.6 10.5 25.1 16.6 9.2 8.9 14.6 18.3 14.6 28z" fill="url(#SVGID_14_)"/><linearGradient id="SVGID_15_" gradientUnits="userSpaceOnUse" x1="204.842" y1="823.209" x2="455.719" y2="884.373" gradientTransform="matrix(.9999 -.01594 .01594 .9999 -12.197 8.528)"><stop offset=".001" stop-color="#e8f5fe"/><stop offset=".232" stop-color="#ecf6fe"/><stop offset="1" stop-color="#eaf2fc"/></linearGradient><path d="M455 856c-15.2 21.2-65.9 31.3-126.3 32.5-62.6 1.3-115.1-7.4-128.6-29.7 23.2-23.8 76.9-41.4 129.2-41.3 24.5 0 49.3 3.9 71.1 10.5 10.7 3.2 20.6 7.1 29.5 11.4 10 5 18.5 10.6 25.1 16.6z" fill="url(#SVGID_15_)"/><linearGradient id="SVGID_16_" gradientUnits="userSpaceOnUse" x1="259.007" y1="826.224" x2="377.579" y2="826.224" gradientTransform="matrix(1 .00467 -.00467 1 3.058 -2.174)"><stop offset=".001" stop-color="#deecfe"/><stop offset=".209" stop-color="#e6f1fe"/><stop offset=".746" stop-color="#d5e3f8"/><stop offset="1" stop-color="#e3effe"/></linearGradient><path d="M376.8 825.2c.3 8.8-26.1 14.7-58.9 16.1s-59.4-2.1-59.7-10.9c-.3-8.8 26-19.5 58.7-20.9s59.6 6.9 59.9 15.7z" fill="url(#SVGID_16_)"/><linearGradient id="SVGID_17_" gradientUnits="userSpaceOnUse" x1="283.304" y1="769.435" x2="301.731" y2="803.6"><stop offset=".001" stop-color="#deecfe"/><stop offset=".209" stop-color="#e6f1fe"/><stop offset=".746" stop-color="#d5e3f8"/><stop offset="1" stop-color="#e3effe"/></linearGradient><path d="M298.5 815.1l-5-40.9c-.1-.4.3-.8.7-.8.4 0 .8.2.9.6l7.1 40.7c.2.9-3.5 1.4-3.7.4z" fill="url(#SVGID_17_)"/><linearGradient id="SVGID_18_" gradientUnits="userSpaceOnUse" x1="281.781" y1="789.817" x2="343.534" y2="819.351" gradientTransform="matrix(1 .00467 -.00467 1 3.058 -2.174)"><stop offset=".001" stop-color="#deecfe"/><stop offset=".209" stop-color="#e6f1fe"/><stop offset=".746" stop-color="#d5e3f8"/><stop offset="1" stop-color="#e3effe"/></linearGradient><path d="M310.8 812.1s-2.1-14.7 3.9-15c6.1-.3 15.7 13.7 15.7 13.7s-3.9 4.9-19.6 1.3z" fill="url(#SVGID_18_)"/><linearGradient id="SVGID_19_" gradientUnits="userSpaceOnUse" x1="423.772" y1="817.878" x2="354.203" y2="906.886"><stop offset="0" stop-color="#ebf4fe" stop-opacity=".6"/><stop offset=".502" stop-color="#cdddf2"/><stop offset="1" stop-color="#9cbded"/></linearGradient><path d="M429.9 839.5c4.8 20.2-41.6 29.8-49.9 30.9-1 .1-2.1-.2-2.8-1-1.8-2-5.7-6.3-11.7-12.5-.6-.6-.3-1.6.6-1.8 21.2-4.6 44-16.2 34.3-27 10.7 3.1 20.7 7 29.5 11.4z" fill="url(#SVGID_19_)"/><linearGradient id="SVGID_20_" gradientUnits="userSpaceOnUse" x1="452.276" y1="921.086" x2="452.276" y2="887.386" gradientTransform="matrix(.9999 -.01594 .01594 .9999 -12.197 8.528)"><stop offset="0" stop-color="#ebf4fe" stop-opacity=".6"/><stop offset=".502" stop-color="#cdddf2"/><stop offset="1" stop-color="#a8c4ec"/></linearGradient><path d="M465.8 897.5c-4.3 7.4-12.2 13.6-22.7 18.6 1.2-29.1 22.4-33 22.7-18.6z" fill="url(#SVGID_20_)"/><g><radialGradient id="SVGID_21_" cx="1568.044" cy="775.332" r="83.681" gradientTransform="matrix(.9948 .1022 -.0496 .4839 43.652 263.163)" gradientUnits="userSpaceOnUse"><stop offset="0" stop-color="#dae8fe"/><stop offset=".569" stop-color="#dfebfe" stop-opacity=".431"/><stop offset="1" stop-color="#e7effe" stop-opacity="0"/></radialGradient><path d="M1449.8 787.7c27.2 41.8 105.6 48.3 147.6 44 34.5-3.5 42.2-27.8 2-49.5-109.6-33.2-149.6 5.5-149.6 5.5z" opacity=".63" fill="url(#SVGID_21_)"/><linearGradient id="SVGID_22_" gradientUnits="userSpaceOnUse" x1="1456.916" y1="793.375" x2="1588.318" y2="795.866" gradientTransform="matrix(.9993 -.03783 .03783 .9993 -25.173 51.014)"><stop offset="0" stop-color="#e5f1fe"/><stop offset="1" stop-color="#d7e2fa"/></linearGradient><path d="M1447.3 778c-.5 3-.1 5.8.9 8.5 1.8 4.7 5.8 9 11.6 12.9 13.8 9.4 37.7 16.5 65.1 20.8 16 2.5 31.1 3.8 44 3.5 10.2-.2 19.1-1.5 26.1-3.8 9.3-3.2 15.3-8.3 16.5-16 .8-5-1-10.3-4.6-15.5-.5-.7-1-1.3-1.5-2-.3-.3-.5-.6-.8-1-.3-.3-.6-.6-.8-1-.3-.3-.6-.6-.9-1-.3-.3-.6-.6-.9-1l-1-1c-.7-.6-1.4-1.3-2.1-1.9-.3-.3-.7-.6-1.1-.9-2.6-2.2-5.5-4.3-8.6-6.4-.4-.3-.8-.5-1.2-.8-.1-.1-.2-.1-.3-.2-.9-.6-1.8-1.1-2.7-1.6-.1-.1-.2-.1-.3-.2-.8-.5-1.7-1-2.6-1.5-.5-.3-1-.5-1.5-.8-.5-.3-1-.5-1.4-.8l-2.4-1.2c-1.2-.6-2.4-1.1-3.6-1.7-.1-.1-.3-.1-.4-.2-.3-.2-.7-.3-1-.5l-.6-.3c-3.3-1.4-6.7-2.8-10.2-4-.6-.2-1.1-.4-1.7-.6-1-.3-1.9-.6-2.9-.9l-3-.9c-.3-.1-.5-.1-.7-.2-.2 0-.4-.1-.5-.2-.5-.2-1-.3-1.6-.4l-4.8-1.2c-.5-.1-.9-.2-1.4-.3l-4.2-.9c-.5-.1-.9-.2-1.4-.3l-3.6-.6c-.5-.1-1.1-.2-1.6-.2-7-1-14.1-1.5-21-1.5-6.8 0-13.5.4-19.9 1.3-6.5.9-12.7 2.2-18.3 4-6.3 2-11.8 4.4-16.2 7.3-6 4.6-10 9.5-10.9 15.2z" fill="url(#SVGID_22_)"/><linearGradient id="SVGID_23_" gradientUnits="userSpaceOnUse" x1="1473.681" y1="783.613" x2="1627.855" y2="780.225" gradientTransform="matrix(.9993 -.03783 .03783 .9993 -25.173 51.014)"><stop offset="0" stop-color="#edf7fd"/><stop offset="1" stop-color="#dee8fe"/></linearGradient><path d="M1458.4 763.3c6.9 13.8 35.6 24.4 70.7 30.7 36.4 6.5 67.9 6.3 77.9-5.5-11.3-16-41.1-31.3-71.6-36.1-14.3-2.3-29.2-2.3-42.5-.5-6.5.9-12.7 2.2-18.3 4-6.3 2-11.8 4.4-16.2 7.4z" fill="url(#SVGID_23_)"/><linearGradient id="SVGID_24_" gradientUnits="userSpaceOnUse" x1="1514.357" y1="738.449" x2="1581.812" y2="750.331" gradientTransform="rotate(4.06 1346.842 677.976) scale(1.00001)"><stop offset=".001" stop-color="#dfedfe"/><stop offset=".209" stop-color="#e5f1fe"/><stop offset="1" stop-color="#d7e2fa"/></linearGradient><path d="M1507 752.5c-1 5.1 13.9 11 32.9 14.9 19 3.9 34.9 4.2 35.9-.9 1-5.1-13.4-13.8-32.4-17.6-19-3.9-35.5-1.5-36.4 3.6z" fill="url(#SVGID_24_)"/><linearGradient id="SVGID_25_" gradientUnits="userSpaceOnUse" x1="1545.429" y1="739.461" x2="1563.584" y2="724.374" gradientTransform="rotate(4.06 1346.842 677.976) scale(1.00001)"><stop offset=".001" stop-color="#dfedfe"/><stop offset=".209" stop-color="#e5f1fe"/><stop offset="1" stop-color="#d7e2fa"/></linearGradient><path d="M1553.6 753.8l6.7-23.4c.1-.2-.1-.5-.4-.6-.3-.1-.5.1-.6.3l-7.9 23.1c-.1.5 2 1.2 2.2.6z" fill="url(#SVGID_25_)"/><g><linearGradient id="SVGID_26_" gradientUnits="userSpaceOnUse" x1="1542.507" y1="731.756" x2="1554.004" y2="732.778" gradientTransform="rotate(4.06 1346.842 677.976) scale(1.00001)"><stop offset=".001" stop-color="#dfedfe"/><stop offset=".209" stop-color="#e5f1fe"/><stop offset="1" stop-color="#d7e2fa"/></linearGradient><path d="M1546.7 750.9s2.6-8.4-.9-9.1c-3.5-.7-10.4 6.6-10.4 6.6s1.8 3.2 11.3 2.5z" fill="url(#SVGID_26_)"/></g><g><linearGradient id="SVGID_27_" gradientUnits="userSpaceOnUse" x1="1485.734" y1="742.112" x2="1514.518" y2="806.076" gradientTransform="matrix(.9998 .01774 -.01774 .9998 11.405 -22.943)"><stop offset="0" stop-color="#e5f1fe"/><stop offset="1" stop-color="#d7e2fa"/></linearGradient><path d="M1474.6 755.9c-4.7 11.4 21.5 21.2 26.3 22.6.6.2 1.2.1 1.7-.3 1.2-1 3.9-3.2 8-6.2.4-.3.3-.9-.2-1.1-12-4.6-24.2-13.5-17.6-18.9-6.4.8-12.6 2.2-18.2 3.9z" fill="url(#SVGID_27_)"/></g><g class="st27"><linearGradient id="SVGID_28_" gradientUnits="userSpaceOnUse" x1="1238.235" y1="773.557" x2="1238.043" y2="757.631" gradientTransform="scale(-1 1) rotate(-9.893 3.389 16337.92)"><stop offset="0" stop-color="#ecf5fd" stop-opacity=".6"/><stop offset=".502" stop-color="#cfdcf5"/><stop offset="1" stop-color="#acc0f0"/></linearGradient><path d="M1448.3 786.5c1.8 4.7 5.8 9 11.6 12.9 1.9-17.1-10.1-21.3-11.6-12.9z" fill="url(#SVGID_28_)"/></g></g><g><radialGradient id="SVGID_29_" cx="1511.029" cy="403.068" r="43.27" gradientTransform="matrix(.952 -.3066 .1488 .4631 45.674 594.23)" gradientUnits="userSpaceOnUse"><stop offset="0" stop-color="#e8f0fb"/><stop offset=".699" stop-color="#edf3fc" stop-opacity=".301"/><stop offset="1" stop-color="#f1f6fd" stop-opacity="0"/></radialGradient><path d="M1487.3 336.5c21.5 14.2 60 .9 79-9.8 15.6-8.8 14.2-21.9-9.3-23.8-58.8 6.9-69.7 33.6-69.7 33.6z" opacity=".63" fill="url(#SVGID_29_)"/><linearGradient id="SVGID_30_" gradientUnits="userSpaceOnUse" x1="1502.739" y1="422.936" x2="1570.695" y2="424.224" gradientTransform="rotate(-25.855 1305.48 400.825)"><stop offset="0" stop-color="#eff6fd"/><stop offset="1" stop-color="#e5ebf8"/></linearGradient><path d="M1484.1 332.4c.4 1.5 1.1 2.8 2.2 3.8 1.8 1.9 4.6 3.1 8.2 3.7 8.5 1.6 21.3 0 35.2-3.7 8.1-2.1 15.5-4.7 21.6-7.5 4.8-2.2 8.8-4.7 11.6-7.2 3.8-3.4 5.5-7.1 4.5-11-.7-2.5-2.6-4.7-5.4-6.4-.4-.2-.7-.4-1.1-.6l-.6-.3-.6-.3-.6-.3-.6-.3c-.2-.1-.4-.2-.7-.3-.4-.2-.9-.3-1.4-.5-.2-.1-.5-.1-.7-.2-1.7-.5-3.5-.9-5.4-1.2-.2 0-.5-.1-.7-.1h-.2c-.5-.1-1.1-.1-1.6-.2h-.2c-.5-.1-1-.1-1.5-.2-.3 0-.6 0-.9-.1-.3 0-.6 0-.8-.1-.5 0-.9-.1-1.4-.1-.7 0-1.4 0-2-.1h-1.2c-1.9 0-3.7.1-5.6.2-.3 0-.6 0-.9.1-.5 0-1 .1-1.6.2-.5.1-1.1.1-1.6.2-.1 0-.3 0-.4.1h-.3c-.3 0-.6.1-.8.1-.8.1-1.7.3-2.5.4-.2 0-.5.1-.7.1-.7.1-1.4.3-2.1.5-.2.1-.5.1-.7.2-.6.1-1.2.3-1.8.5-.3.1-.5.1-.8.2-3.5 1-7 2.2-10.3 3.7-3.2 1.4-6.3 3-9.1 4.7-2.9 1.8-5.6 3.7-7.8 5.7-2.6 2.2-4.7 4.5-6.2 6.9-2.4 3.3-3.3 6.5-2.5 9.4z" fill="url(#SVGID_30_)"/><linearGradient id="SVGID_31_" gradientUnits="userSpaceOnUse" x1="1511.413" y1="417.889" x2="1591.146" y2="416.137" gradientTransform="rotate(-25.855 1305.48 400.825)"><stop offset="0" stop-color="#f5fafd"/><stop offset="1" stop-color="#eaf1fc"/></linearGradient><path d="M1486.3 323.1c6.1 5.1 21.9 4.1 39.9-.2 18.6-4.5 33.5-11.1 35.7-18.8-8.7-5.2-26-6.3-41.4-2.2-7.2 1.9-14.3 5-20.2 8.6-2.9 1.8-5.6 3.7-7.8 5.7-2.6 2.3-4.7 4.6-6.2 6.9z" fill="url(#SVGID_31_)"/><linearGradient id="SVGID_32_" gradientUnits="userSpaceOnUse" x1="1497.482" y1="385.469" x2="1532.362" y2="391.613" gradientTransform="rotate(-19.627 1273.78 316.01)"><stop offset=".001" stop-color="#eaf3fc"/><stop offset=".209" stop-color="#eff6fd"/><stop offset="1" stop-color="#e5ebf8"/></linearGradient><path d="M1507 307.9c.6 2.6 8.9 2.3 18.7.2 9.8-2.1 17.4-5.3 16.8-7.9-.6-2.6-9.2-3.7-19-1.6s-17.1 6.7-16.5 9.3z" fill="url(#SVGID_32_)"/><linearGradient id="SVGID_33_" gradientUnits="userSpaceOnUse" x1="1513.551" y1="385.992" x2="1522.943" y2="378.188" gradientTransform="rotate(-19.627 1273.78 316.01)"><stop offset=".001" stop-color="#eaf3fc"/><stop offset=".209" stop-color="#eff6fd"/><stop offset="1" stop-color="#e5ebf8"/></linearGradient><path d="M1529.4 298.8l-1.7-12.5c0-.1-.1-.2-.3-.2-.1 0-.2.1-.2.3l1.1 12.6c0 .3 1.1.1 1.1-.2 0 .1 0 0 0 0z" fill="url(#SVGID_33_)"/><g><linearGradient id="SVGID_34_" gradientUnits="userSpaceOnUse" x1="1512.04" y1="382.008" x2="1517.986" y2="382.537" gradientTransform="rotate(-19.627 1273.78 316.01)"><stop offset=".001" stop-color="#eaf3fc"/><stop offset=".209" stop-color="#eff6fd"/><stop offset="1" stop-color="#e5ebf8"/></linearGradient><path d="M1525.5 298.9s-.5-4.5-2.3-4.1c-1.8.4-3.6 5.3-3.6 5.3s1.5 1.1 5.9-1.2z" fill="url(#SVGID_34_)"/></g><g><linearGradient id="SVGID_35_" gradientUnits="userSpaceOnUse" x1="1500.171" y1="390.823" x2="1515.047" y2="423.88" gradientTransform="rotate(-22.676 1294.098 364.131)"><stop offset="0" stop-color="#eff6fd"/><stop offset="1" stop-color="#e5ebf8"/></linearGradient><path d="M1492.4 316.3c.1 6.4 14.6 5.6 17.1 5.3.3 0 .6-.2.7-.5.4-.7 1.2-2.3 2.5-4.6.1-.2 0-.5-.3-.5-6.6.3-14.3-1.4-12.2-5.3-2.9 1.7-5.5 3.6-7.8 5.6z" fill="url(#SVGID_35_)"/></g><g class="st27"><linearGradient id="SVGID_36_" gradientUnits="userSpaceOnUse" x1="1268.011" y1="399.205" x2="1267.912" y2="390.973" gradientTransform="scale(-1 1) rotate(13.799 141.575 -11030.028)"><stop offset="0" stop-color="#f4f9fd" stop-opacity=".6"/><stop offset=".502" stop-color="#dde6f3"/><stop offset="1" stop-color="#c3d0e9"/></linearGradient><path d="M1486.3 336.2c1.8 1.9 4.6 3.1 8.2 3.7-2.7-8.5-9.2-8-8.2-3.7z" fill="url(#SVGID_36_)"/></g></g></svg>