<?xml version="1.0" standalone="no"?>
<svg xmlns:xlink="http://www.w3.org/1999/xlink" id="wave" style="transform:rotate(0deg); transition: 0.3s" viewBox="0 0 1440 490" version="1.1" xmlns="http://www.w3.org/2000/svg"><defs><linearGradient id="sw-gradient-0" x1="0" x2="0" y1="1" y2="0"><stop stop-color="rgba(243, 255, 253, 1)" offset="0%"/><stop stop-color="rgba(243, 255, 253, 1)" offset="100%"/></linearGradient></defs><path style="transform:translate(0, 0px); opacity:1" fill="url(#sw-gradient-0)" d="M0,392L30,383.8C60,376,120,359,180,359.3C240,359,300,376,360,392C420,408,480,425,540,392C600,359,660,278,720,269.5C780,261,840,327,900,294C960,261,1020,131,1080,73.5C1140,16,1200,33,1260,81.7C1320,131,1380,212,1440,277.7C1500,343,1560,392,1620,416.5C1680,441,1740,441,1800,424.7C1860,408,1920,376,1980,334.8C2040,294,2100,245,2160,196C2220,147,2280,98,2340,73.5C2400,49,2460,49,2520,106.2C2580,163,2640,278,2700,318.5C2760,359,2820,327,2880,318.5C2940,310,3000,327,3060,318.5C3120,310,3180,278,3240,245C3300,212,3360,180,3420,171.5C3480,163,3540,180,3600,163.3C3660,147,3720,98,3780,98C3840,98,3900,147,3960,147C4020,147,4080,98,4140,65.3C4200,33,4260,16,4290,8.2L4320,0L4320,490L4290,490C4260,490,4200,490,4140,490C4080,490,4020,490,3960,490C3900,490,3840,490,3780,490C3720,490,3660,490,3600,490C3540,490,3480,490,3420,490C3360,490,3300,490,3240,490C3180,490,3120,490,3060,490C3000,490,2940,490,2880,490C2820,490,2760,490,2700,490C2640,490,2580,490,2520,490C2460,490,2400,490,2340,490C2280,490,2220,490,2160,490C2100,490,2040,490,1980,490C1920,490,1860,490,1800,490C1740,490,1680,490,1620,490C1560,490,1500,490,1440,490C1380,490,1320,490,1260,490C1200,490,1140,490,1080,490C1020,490,960,490,900,490C840,490,780,490,720,490C660,490,600,490,540,490C480,490,420,490,360,490C300,490,240,490,180,490C120,490,60,490,30,490L0,490Z"/></svg>