<?xml version="1.0" standalone="no"?>
<svg xmlns:xlink="http://www.w3.org/1999/xlink" id="wave" style="transform:rotate(180deg); transition: 0.3s" viewBox="0 0 1440 490" version="1.1" xmlns="http://www.w3.org/2000/svg"><defs><linearGradient id="sw-gradient-0" x1="0" x2="0" y1="1" y2="0"><stop stop-color="rgba(243, 255, 253, 1)" offset="0%"/><stop stop-color="rgba(243, 255, 253, 1)" offset="100%"/></linearGradient></defs><path style="transform:translate(0, 0px); opacity:1" fill="url(#sw-gradient-0)" d="M0,98L30,89.8C60,82,120,65,180,73.5C240,82,300,114,360,171.5C420,229,480,310,540,326.7C600,343,660,294,720,294C780,294,840,343,900,367.5C960,392,1020,392,1080,400.2C1140,408,1200,425,1260,432.8C1320,441,1380,441,1440,383.8C1500,327,1560,212,1620,147C1680,82,1740,65,1800,57.2C1860,49,1920,49,1980,73.5C2040,98,2100,147,2160,212.3C2220,278,2280,359,2340,334.8C2400,310,2460,180,2520,114.3C2580,49,2640,49,2700,98C2760,147,2820,245,2880,245C2940,245,3000,147,3060,147C3120,147,3180,245,3240,277.7C3300,310,3360,278,3420,261.3C3480,245,3540,245,3600,236.8C3660,229,3720,212,3780,220.5C3840,229,3900,261,3960,228.7C4020,196,4080,98,4140,122.5C4200,147,4260,294,4290,367.5L4320,441L4320,490L4290,490C4260,490,4200,490,4140,490C4080,490,4020,490,3960,490C3900,490,3840,490,3780,490C3720,490,3660,490,3600,490C3540,490,3480,490,3420,490C3360,490,3300,490,3240,490C3180,490,3120,490,3060,490C3000,490,2940,490,2880,490C2820,490,2760,490,2700,490C2640,490,2580,490,2520,490C2460,490,2400,490,2340,490C2280,490,2220,490,2160,490C2100,490,2040,490,1980,490C1920,490,1860,490,1800,490C1740,490,1680,490,1620,490C1560,490,1500,490,1440,490C1380,490,1320,490,1260,490C1200,490,1140,490,1080,490C1020,490,960,490,900,490C840,490,780,490,720,490C660,490,600,490,540,490C480,490,420,490,360,490C300,490,240,490,180,490C120,490,60,490,30,490L0,490Z"/></svg>